<?xml version="1.0" standalone="no"?>
<!DOCTYPE svg PUBLIC "-//W3C//DTD SVG 20010904//EN"
 "http://www.w3.org/TR/2001/REC-SVG-20010904/DTD/svg10.dtd">
<svg version="1.0" xmlns="http://www.w3.org/2000/svg"
 width="1000.000000pt" height="1000.000000pt" viewBox="0 0 1000.000000 1000.000000"
 preserveAspectRatio="xMidYMid meet">
<metadata>
Created by potrace 1.11, written by Peter Selinger 2001-2013
</metadata>
<g transform="translate(0.000000,1000.000000) scale(0.100000,-0.100000)"
fill="#000000" stroke="none">
<path d="M0 5000 l0 -5000 5000 0 5000 0 0 5000 0 5000 -5000 0 -5000 0 0
-5000z m5012 3126 c10 -8 29 -11 40 -8 17 4 20 2 15 -11 -5 -12 2 -18 26 -22
18 -4 39 -5 46 -3 7 2 16 -3 19 -11 3 -10 0 -12 -12 -8 -10 4 -15 3 -11 -3 3
-6 12 -10 18 -10 12 0 46 -27 115 -93 34 -32 92 -112 92 -126 0 -5 6 -11 14
-14 9 -4 12 -14 9 -26 -4 -15 -1 -21 11 -21 10 0 13 -6 10 -15 -4 -8 -1 -15 5
-15 6 0 11 -9 11 -20 0 -11 5 -20 11 -20 5 0 8 -4 4 -9 -3 -6 4 -19 16 -30 12
-11 18 -24 14 -30 -3 -6 -1 -11 4 -11 6 0 11 -9 11 -21 0 -12 4 -17 11 -14 15
10 79 -86 79 -119 0 -7 7 -19 15 -26 8 -7 12 -16 9 -21 -3 -5 0 -9 7 -9 7 0
10 -3 6 -6 -3 -4 1 -13 9 -21 8 -9 13 -21 10 -28 -3 -8 2 -16 10 -19 9 -3 12
-10 9 -16 -3 -5 1 -10 10 -10 9 0 15 -6 14 -12 -3 -28 2 -48 12 -45 6 1 23
-21 39 -50 15 -29 37 -65 48 -80 10 -15 22 -40 26 -55 3 -14 15 -37 26 -50 24
-28 90 -127 91 -137 0 -3 16 -26 35 -51 18 -25 44 -65 56 -90 12 -25 35 -58
50 -74 16 -16 28 -34 28 -41 0 -7 12 -25 28 -42 28 -31 72 -109 72 -130 0 -6
10 -19 23 -28 12 -8 22 -19 22 -23 1 -4 6 -17 13 -30 7 -12 10 -27 7 -32 -3
-6 1 -10 10 -10 11 0 15 -5 12 -14 -4 -10 -1 -13 7 -10 7 3 16 -2 20 -11 4
-10 2 -14 -6 -9 -7 4 -8 3 -4 -4 4 -7 27 -17 51 -23 46 -12 61 -23 67 -49 2
-8 12 -23 22 -32 10 -10 16 -18 13 -18 -4 0 4 -21 18 -47 13 -26 21 -51 19
-55 -2 -4 5 -22 16 -40 11 -18 20 -39 20 -46 0 -7 9 -34 21 -60 53 -120 70
-152 78 -147 5 2 9 -7 9 -21 0 -27 29 -67 43 -58 5 3 9 -3 9 -14 0 -22 43
-106 65 -129 9 -8 22 -29 31 -46 15 -33 22 -44 62 -109 13 -21 24 -46 25 -58
1 -11 7 -20 15 -20 7 0 10 -4 7 -10 -3 -5 -2 -10 4 -10 6 0 8 -7 5 -15 -4 -8
-2 -15 2 -15 5 0 15 -14 22 -30 8 -17 17 -28 22 -25 4 3 11 -7 14 -21 4 -14
18 -35 31 -47 31 -29 57 -105 43 -131 -7 -12 -7 -16 0 -12 6 3 13 -7 17 -24 4
-16 11 -30 16 -30 5 0 9 -9 9 -20 0 -11 5 -20 11 -20 5 0 8 -4 5 -8 -3 -5 10
-32 29 -61 19 -29 35 -55 35 -59 0 -3 10 -22 23 -41 79 -121 104 -160 122
-196 12 -22 43 -75 68 -118 26 -43 47 -82 47 -85 0 -4 9 -18 20 -32 11 -14 20
-32 20 -41 0 -9 9 -26 20 -39 11 -13 20 -29 20 -35 0 -7 7 -18 15 -25 8 -7 15
-23 15 -35 0 -13 5 -25 10 -27 6 -2 12 -14 13 -28 1 -14 12 -39 25 -57 12 -17
22 -35 22 -39 0 -12 47 -112 85 -179 50 -91 78 -135 86 -135 5 0 9 -9 9 -20 0
-11 7 -20 16 -20 8 0 13 -4 9 -9 -3 -5 4 -16 16 -25 12 -8 19 -18 16 -23 -9
-14 8 -34 29 -37 13 -2 22 -15 28 -44 5 -23 13 -42 17 -42 5 0 6 7 3 15 -8 20
6 19 22 -2 18 -24 17 -33 -2 -33 -8 0 -12 -5 -9 -10 3 -5 15 -10 27 -10 17 0
18 -3 8 -14 -10 -13 -7 -15 16 -13 31 2 41 -25 20 -58 -11 -17 -10 -23 7 -40
10 -11 23 -29 28 -40 13 -29 50 -89 58 -95 4 -3 15 -23 25 -45 11 -22 30 -53
42 -68 13 -16 24 -34 24 -41 0 -7 13 -22 29 -34 20 -14 28 -28 24 -40 -2 -10
3 -25 13 -33 11 -8 15 -9 10 -2 -5 9 -2 11 8 7 19 -7 30 -38 16 -42 -7 -3 -3
-10 8 -18 11 -7 22 -27 26 -44 3 -20 16 -37 35 -48 30 -17 93 -109 96 -140 2
-18 36 -94 46 -102 3 -3 10 -18 16 -35 8 -24 6 -37 -10 -65 -10 -18 -21 -57
-24 -85 -2 -27 -8 -54 -14 -59 -5 -6 -9 -22 -9 -36 0 -15 -9 -35 -20 -45 -11
-10 -22 -26 -25 -36 -4 -11 -11 -17 -16 -14 -5 4 -9 2 -9 -4 0 -17 -66 -51
-103 -53 -21 -2 -37 -6 -37 -10 0 -5 -13 -8 -28 -8 -16 0 -37 -9 -47 -20 -10
-11 -21 -18 -23 -15 -3 3 3 12 14 20 18 14 18 14 -3 15 -13 0 -23 3 -23 8 0 4
-15 6 -32 5 -18 -1 -40 -2 -47 -2 -12 -1 -12 -4 -3 -13 17 -17 15 -33 -3 -18
-12 10 -16 9 -21 -4 -4 -10 -13 -15 -20 -12 -8 3 -14 0 -15 -7 0 -7 -5 -1 -10
13 -8 19 -12 21 -18 11 -5 -8 -18 -12 -30 -8 -12 3 -21 1 -21 -4 0 -5 -7 -9
-15 -9 -8 0 -15 6 -15 13 0 8 -3 8 -9 -2 -8 -12 -12 -12 -25 -2 -13 11 -17 11
-21 -1 -5 -11 -26 -15 -89 -15 -45 0 -87 -3 -93 -6 -6 -4 -24 -2 -42 3 -17 5
-34 9 -38 10 -3 1 -9 -4 -13 -10 -5 -8 -13 -9 -21 -4 -20 12 -137 8 -153 -5
-9 -8 -15 -8 -18 -2 -4 12 -3 12 -204 9 -106 -2 -156 -7 -167 -16 -8 -7 -18
-9 -21 -4 -8 13 -182 6 -217 -8 -23 -10 -78 -11 -222 -6 -106 4 -214 9 -242
11 -180 14 -277 18 -580 20 -250 1 -347 5 -364 15 -19 10 -25 10 -32 -1 -7
-12 -11 -11 -19 1 -5 8 -10 10 -10 4 0 -5 -18 -11 -41 -13 -31 -1 -39 1 -33
11 6 10 5 11 -7 1 -13 -10 -80 -16 -149 -13 -8 1 -96 -2 -195 -5 -99 -3 -300
-7 -446 -8 -147 -1 -265 -5 -262 -9 2 -5 -9 -8 -26 -8 -16 0 -32 4 -35 9 -10
15 -110 8 -123 -9 -10 -13 -13 -13 -25 2 -11 16 -16 16 -39 4 -24 -12 -28 -12
-43 6 -17 19 -48 18 -71 -4 -6 -6 -3 -7 10 -2 l20 7 -20 -16 c-17 -13 -20 -13
-23 -1 -5 19 -21 18 -44 -3 -10 -9 -21 -13 -26 -9 -4 4 2 14 12 22 27 20 1 18
-30 -2 -13 -9 -27 -14 -31 -10 -3 3 -1 6 6 6 8 0 11 7 7 15 -3 10 1 15 11 15
9 0 13 3 10 7 -10 9 -277 12 -277 3 0 -5 -9 -6 -20 -3 -12 3 -26 -1 -33 -9
-15 -18 -47 -31 -47 -19 0 5 5 11 12 13 7 3 5 7 -6 11 -9 4 -15 3 -12 -1 2 -4
0 -14 -5 -22 -8 -12 -12 -12 -16 -2 -2 6 -9 10 -14 7 -5 -4 -6 1 -3 9 3 9 1
16 -5 16 -6 0 -11 -6 -11 -13 0 -7 -10 -13 -22 -14 -22 -2 -22 -1 -4 12 17 13
17 14 -10 21 -19 5 -29 3 -32 -6 -4 -10 -6 -9 -13 1 -8 12 -10 12 -18 0 -5 -8
-11 -9 -15 -3 -10 16 -85 26 -100 13 -7 -6 -16 -8 -19 -4 -4 3 -23 8 -42 10
-25 3 -37 -1 -41 -12 -6 -14 -8 -14 -18 1 -9 12 -19 14 -37 8 -58 -19 -140
-24 -151 -9 -5 6 -8 5 -8 -2 0 -8 -14 -13 -35 -13 -24 0 -35 -5 -35 -15 0 -17
-16 -20 -25 -5 -3 6 0 10 7 11 7 0 4 4 -7 8 -24 10 -43 2 -24 -10 11 -6 11
-13 3 -26 -16 -25 -43 -28 -59 -6 -13 17 -14 17 -21 0 -5 -15 -9 -16 -16 -5
-8 10 -11 10 -15 0 -2 -6 -9 -10 -14 -6 -5 3 -4 11 3 18 16 15 58 27 58 16 0
-4 8 -11 17 -14 10 -4 14 -4 10 0 -4 4 -2 13 4 21 9 10 8 13 -2 14 -8 0 -40 3
-71 5 -52 4 -57 2 -64 -18 -5 -13 -7 -26 -7 -29 1 -3 -8 -4 -20 -3 -12 1 -32
3 -45 3 -19 1 -21 4 -13 20 9 16 8 18 -9 14 -11 -3 -25 -11 -31 -19 -14 -17
-59 -18 -59 -1 0 8 -3 8 -9 -2 -12 -18 -45 -6 -37 14 3 9 0 15 -9 15 -8 0 -14
-5 -12 -11 1 -6 -4 -14 -11 -16 -7 -3 -11 1 -10 8 2 9 -10 14 -35 16 -22 1
-35 -2 -32 -7 4 -6 -4 -10 -17 -10 -16 0 -19 3 -10 9 9 5 5 8 -15 8 -35 -1
-56 5 -65 18 -5 6 -8 4 -8 -5 0 -13 -1 -13 -11 0 -8 11 -12 12 -16 3 -2 -7
-11 -13 -19 -13 -8 0 -14 6 -14 13 0 9 -2 9 -9 -1 -9 -14 -40 -10 -105 14 -23
9 -43 11 -48 6 -14 -14 -95 11 -119 36 -28 30 -39 74 -39 149 0 50 -4 67 -20
83 -23 23 -21 47 11 117 10 24 19 47 19 52 0 11 61 140 86 181 8 14 21 41 30
60 53 124 100 205 120 208 12 2 26 13 32 25 6 12 36 67 67 122 30 55 67 125
81 155 15 30 35 64 44 75 9 11 23 35 31 53 8 17 17 32 21 32 5 0 8 7 8 15 0 8
7 15 16 15 11 0 14 5 10 17 -4 9 -3 19 1 22 4 3 18 28 31 54 14 30 26 45 34
41 7 -5 8 -3 4 5 -8 12 90 222 107 229 4 2 5 7 2 12 -3 5 2 15 10 24 8 8 27
38 41 65 14 28 30 51 36 51 6 0 8 3 5 7 -6 5 151 319 174 348 4 6 29 51 54
100 26 50 55 99 64 110 9 11 25 38 36 60 11 22 36 66 57 98 21 32 38 65 38 73
0 8 4 14 9 14 5 0 13 10 17 23 4 12 46 81 94 152 86 129 111 171 178 295 19
36 43 74 53 86 11 11 16 24 12 27 -3 4 -1 7 5 7 7 0 12 7 12 16 0 19 33 83 73
138 15 21 27 44 27 50 0 6 13 36 30 66 16 30 35 67 41 83 6 15 15 27 20 27 5
0 9 7 9 15 0 17 17 50 40 78 8 11 15 24 15 30 1 22 46 98 55 92 5 -3 12 0 16
6 4 8 3 9 -4 5 -19 -12 -14 9 11 40 12 16 22 31 22 34 0 3 3 4 7 3 4 -2 5 3 2
10 -2 7 21 62 52 122 31 61 62 124 70 140 37 76 53 100 70 104 20 4 50 37 60
66 4 11 21 41 38 66 40 61 118 187 133 216 6 12 18 35 26 50 8 15 45 89 81
163 36 74 84 167 106 205 22 39 50 89 62 113 12 23 26 42 30 42 4 0 8 5 8 11
0 16 268 431 282 437 4 2 8 9 8 16 0 7 9 21 20 31 11 10 20 22 20 28 0 5 8 17
18 26 24 22 55 69 76 112 10 21 35 47 63 64 25 16 64 51 86 78 37 43 44 47 75
42 19 -3 43 -11 54 -19z m1918 -2896 c0 -5 -2 -10 -4 -10 -3 0 -8 5 -11 10 -3
6 -1 10 4 10 6 0 11 -4 11 -10z m-3985 -3230 c-3 -5 -10 -10 -16 -10 -5 0 -9
5 -9 10 0 6 7 10 16 10 8 0 12 -4 9 -10z m582 -16 c-3 -3 -12 -4 -19 -1 -8 3
-5 6 6 6 11 1 17 -2 13 -5z m59 -10 c-3 -9 -6 -17 -6 -20 0 -2 -7 -1 -15 2
-12 5 -13 10 -4 20 16 19 33 18 25 -2z m-893 -10 c-3 -9 0 -20 8 -25 12 -8
-11 -8 -50 0 -4 1 40 41 45 41 2 0 1 -7 -3 -16z m351 8 c3 -5 -1 -9 -9 -9 -8
0 -12 4 -9 9 3 4 7 8 9 8 2 0 6 -4 9 -8z m93 2 c-3 -3 -12 -4 -19 -1 -8 3 -5
6 6 6 11 1 17 -2 13 -5z m403 -20 c0 -2 -9 -4 -20 -4 -11 0 -20 4 -20 9 0 5 9
7 20 4 11 -3 20 -7 20 -9z m-1100 -4 c0 -5 -4 -10 -10 -10 -5 0 -10 5 -10 10
0 6 5 10 10 10 6 0 10 -4 10 -10z m562 -12 c-2 -10 -9 -18 -15 -18 -6 0 -7 3
-3 7 3 4 -4 13 -16 20 -22 12 -22 13 8 11 25 -2 30 -6 26 -20z m-162 -8 c0 -5
-2 -10 -4 -10 -3 0 -8 5 -11 10 -3 6 -1 10 4 10 6 0 11 -4 11 -10z m120 0 c0
-5 -2 -10 -4 -10 -3 0 -8 5 -11 10 -3 6 -1 10 4 10 6 0 11 -4 11 -10z"/>
<path d="M5020 7731 c0 -8 -3 -12 -6 -8 -3 3 -14 -2 -25 -11 -18 -16 -18 -17
-2 -23 10 -4 29 -5 43 -2 20 4 22 2 10 -6 -8 -6 -30 -11 -47 -11 -18 0 -33 -4
-33 -10 0 -5 -7 -7 -14 -4 -16 6 -89 -60 -79 -70 4 -3 -4 -15 -16 -25 -12 -11
-22 -22 -22 -25 3 -20 -1 -26 -13 -26 -8 0 -16 -7 -20 -15 -3 -8 -12 -12 -19
-9 -8 3 -17 -2 -21 -11 -5 -13 -1 -15 14 -10 28 9 36 -19 16 -50 -9 -14 -14
-30 -11 -35 3 -6 4 -10 1 -10 -2 0 -11 14 -20 30 -8 17 -11 28 -6 25 5 -3 11
-1 15 5 4 6 11 8 16 5 5 -4 9 1 9 11 0 13 -3 14 -15 4 -8 -6 -19 -9 -25 -5
-10 6 -12 2 -13 -32 -1 -10 -5 -21 -11 -24 -5 -4 1 -12 12 -18 26 -14 22 -41
-15 -90 -15 -20 -30 -38 -33 -41 -3 -3 -17 -21 -30 -40 -13 -19 -27 -37 -30
-40 -4 -3 -24 -28 -46 -55 -21 -28 -45 -57 -52 -65 -7 -8 -55 -69 -108 -135
-52 -66 -99 -121 -105 -123 -5 -2 -9 -8 -9 -13 0 -5 -17 -32 -37 -60 -27 -36
-37 -58 -35 -79 4 -31 -59 -167 -120 -262 -19 -29 -45 -70 -57 -90 -13 -21
-27 -38 -32 -38 -5 0 -9 -6 -9 -13 0 -11 -41 -70 -108 -156 -15 -19 -35 -47
-44 -62 -9 -15 -21 -30 -27 -33 -6 -4 -11 -16 -11 -27 0 -12 -4 -17 -11 -13
-8 5 -8 1 0 -13 7 -14 7 -24 -2 -33 -8 -9 -8 -11 -1 -7 12 7 29 -21 19 -31 -3
-3 -5 -1 -5 4 0 5 -11 11 -25 12 -29 2 -30 -6 -11 -53 8 -19 11 -35 5 -35 -5
0 -9 -9 -9 -20 0 -24 -41 -44 -52 -26 -5 6 -8 3 -8 -10 0 -22 -29 -54 -49 -54
-7 0 -9 5 -5 12 5 7 3 8 -6 3 -10 -6 -9 -12 7 -24 11 -9 18 -22 15 -29 -3 -9
-8 -10 -17 -2 -19 16 -29 -18 -10 -36 21 -22 19 -25 -10 -14 -20 8 -25 6 -25
-6 0 -8 -4 -13 -9 -10 -4 3 -6 -6 -3 -21 4 -21 2 -25 -11 -20 -11 4 -23 -5
-39 -31 -13 -20 -23 -39 -23 -42 -1 -3 -6 -15 -13 -28 -7 -12 -14 -48 -15 -80
-2 -51 -9 -69 -60 -151 -31 -51 -57 -95 -57 -98 0 -3 -11 -18 -25 -35 -14 -16
-25 -38 -25 -48 0 -10 -5 -20 -11 -22 -5 -2 -11 -11 -12 -20 -2 -9 -15 -34
-30 -56 -16 -21 -27 -46 -25 -53 2 -8 -3 -13 -9 -11 -7 1 -13 -3 -13 -10 0 -7
-19 -51 -41 -98 -23 -47 -55 -114 -72 -150 -57 -124 -59 -128 -89 -134 -35 -7
-50 -21 -67 -63 -9 -22 -20 -33 -35 -34 -20 0 -21 -1 -1 -9 19 -8 19 -9 -2 -9
-24 -1 -39 -16 -24 -25 5 -4 12 0 14 6 4 10 6 10 6 1 1 -7 -9 -21 -20 -32 -16
-15 -20 -27 -15 -45 6 -25 -4 -32 -36 -27 -4 0 -5 -15 -3 -34 3 -20 -1 -39 -9
-47 -7 -8 -21 -27 -30 -43 -39 -70 -59 -101 -77 -121 -10 -11 -19 -24 -19 -28
0 -5 -15 -29 -33 -55 -18 -25 -42 -63 -52 -83 -11 -21 -23 -38 -27 -38 -5 0
-8 -5 -8 -11 0 -6 -13 -29 -28 -52 -15 -23 -56 -99 -91 -168 -63 -128 -91
-169 -114 -169 -17 0 -117 -138 -117 -161 0 -12 -33 -81 -62 -129 -89 -150
-250 -474 -250 -505 -1 -15 -7 -29 -15 -32 -9 -4 -12 -15 -9 -34 4 -30 -8 -49
-17 -27 -3 8 -6 5 -6 -6 -1 -14 4 -17 20 -13 21 6 21 6 -1 -15 -20 -19 -21
-22 -6 -30 9 -5 14 -13 11 -18 -3 -5 -1 -11 4 -14 5 -4 8 -18 6 -34 -6 -59 -1
-61 178 -61 202 -1 280 -5 597 -28 58 -4 116 -8 130 -8 14 -1 54 -4 90 -8 166
-19 465 -25 620 -14 155 11 728 21 1005 16 11 0 166 2 345 5 314 4 589 -8 601
-25 5 -9 185 -6 339 5 41 3 152 8 245 11 94 3 184 8 200 10 85 13 273 36 320
40 22 2 54 6 70 9 17 3 65 8 108 11 43 3 90 8 103 11 31 8 82 -13 89 -36 6
-19 -14 -18 410 -23 61 -1 180 2 265 7 85 4 186 10 224 12 38 2 72 8 76 15 5
7 9 8 11 1 3 -6 20 -3 44 9 22 11 50 18 62 16 12 -2 20 -1 18 3 -2 4 7 12 20
18 21 10 27 9 37 -7 14 -22 40 -17 31 6 -4 11 -2 14 5 9 7 -4 12 -1 12 8 0 9
5 16 10 16 6 0 10 11 10 24 0 16 -20 46 -58 86 -32 34 -67 81 -79 103 -31 63
-53 114 -53 125 0 5 -7 15 -15 22 -8 7 -15 23 -15 36 0 13 -4 24 -9 24 -11 0
-101 151 -101 170 0 7 -29 62 -65 121 -35 59 -67 119 -71 133 -3 14 -10 26
-15 26 -4 0 -16 17 -26 38 -9 20 -19 39 -22 42 -12 11 -31 50 -31 64 0 8 -9
30 -19 48 -10 18 -22 48 -26 66 -4 17 -12 32 -18 32 -13 0 -57 60 -57 77 0 6
-3 13 -7 15 -8 3 -19 22 -67 112 -12 22 -30 50 -40 63 -11 13 -21 30 -22 39
-1 9 -12 25 -23 35 -12 11 -21 25 -21 30 0 6 -9 24 -21 40 -11 16 -22 36 -23
44 -1 8 -9 22 -18 32 -23 27 -49 85 -35 77 7 -3 4 1 -5 9 -10 8 -18 17 -18 20
0 3 -11 18 -24 32 -14 15 -39 56 -58 93 -18 37 -36 69 -39 72 -3 3 -32 48 -64
100 -53 88 -118 189 -234 364 -25 38 -56 90 -69 115 -14 25 -31 53 -38 62 -8
8 -14 19 -14 23 0 4 -16 30 -35 59 -19 28 -35 60 -35 69 0 10 -3 18 -7 18 -5
0 -23 33 -41 73 -62 135 -121 252 -159 312 -73 117 -223 365 -223 369 0 2 -27
45 -60 94 -33 50 -60 94 -60 98 0 3 -17 34 -37 68 -21 33 -44 72 -51 86 -7 14
-18 34 -25 45 -7 11 -25 43 -41 70 -16 28 -42 63 -57 79 -15 16 -40 54 -55 85
-15 31 -33 64 -41 73 -16 18 -40 59 -75 128 -13 24 -31 52 -40 62 -9 9 -25 32
-34 50 -16 33 -81 134 -136 215 -15 23 -28 44 -28 48 0 4 -20 39 -43 79 -24
39 -64 105 -88 146 -24 41 -50 83 -56 95 -11 18 -29 55 -47 95 -30 71 -76 135
-101 142 -16 4 -32 5 -36 2 -4 -2 -10 0 -14 6 -5 9 15 15 38 11 4 0 7 4 7 9 0
6 -7 10 -15 10 -8 0 -15 5 -15 11 0 5 -5 7 -11 3 -7 -4 -20 4 -30 17 -12 15
-19 19 -19 10z m115 -1407 c22 -3 49 -9 60 -13 30 -12 86 -29 123 -36 17 -4
32 -11 32 -17 0 -6 6 -8 14 -5 8 3 32 1 53 -4 55 -15 197 -86 218 -109 10 -11
24 -20 32 -20 7 0 13 -4 13 -10 0 -21 77 -80 105 -80 8 0 15 -4 15 -9 0 -5 6
-16 13 -23 8 -7 26 -36 41 -63 15 -28 43 -64 62 -82 18 -17 41 -50 50 -71 8
-22 28 -50 44 -62 16 -13 28 -25 26 -29 -10 -15 15 -103 35 -124 18 -19 20
-30 15 -82 -13 -134 -18 -161 -33 -172 -8 -6 -16 -23 -17 -36 -2 -14 -10 -32
-18 -41 -9 -8 -19 -31 -22 -51 -4 -19 -11 -35 -16 -35 -5 0 -7 -7 -4 -15 4 -8
1 -15 -6 -15 -7 0 -9 -8 -5 -19 5 -18 2 -30 -33 -111 -16 -38 -51 -77 -65 -72
-5 1 -6 -7 -2 -18 5 -15 1 -22 -18 -29 -13 -5 -27 -19 -30 -30 -3 -12 -12 -21
-21 -21 -9 0 -16 -5 -16 -10 0 -13 -62 -69 -76 -70 -14 0 -44 -44 -44 -62 0
-7 8 -29 18 -48 40 -74 49 -183 24 -270 -20 -70 -21 -72 -84 -102 -81 -40
-210 -53 -259 -28 -17 10 -33 8 -78 -6 -54 -18 -196 -24 -218 -11 -5 3 -50 2
-99 -3 -49 -4 -118 -7 -154 -5 -36 2 -117 5 -180 8 -160 6 -298 50 -275 87 3
5 1 10 -4 10 -6 0 -11 9 -11 19 0 13 -8 21 -22 23 -21 3 -23 9 -24 71 -2 65
-1 67 19 61 19 -6 20 -5 9 8 -15 19 -11 93 5 93 6 0 15 3 19 8 4 4 2 7 -5 7
-9 0 -11 9 -6 28 4 22 -1 34 -26 60 -17 18 -36 32 -41 32 -5 0 -6 4 -3 10 3 5
-5 15 -19 22 -14 6 -26 15 -26 20 0 10 -73 90 -127 141 -31 29 -45 77 -23 77
16 0 12 57 -4 63 -9 4 -12 14 -9 26 3 12 1 21 -5 21 -14 0 -21 37 -9 49 7 7 5
12 -6 17 -9 3 -17 10 -17 16 0 5 6 6 13 2 6 -4 4 2 -6 13 -14 16 -17 30 -12
62 4 30 3 41 -7 41 -16 0 -22 44 -22 164 -1 55 3 91 10 93 6 2 9 19 8 38 -2
19 1 37 6 40 5 3 7 12 3 20 -3 10 1 15 13 15 12 0 15 3 8 8 -9 5 -7 17 7 42
26 50 27 52 33 82 5 20 11 26 26 23 23 -4 50 20 88 80 13 22 31 44 38 48 16 9
18 38 4 55 -6 6 -7 10 -3 7 9 -7 44 26 37 36 -3 5 -1 9 5 9 5 0 13 -5 16 -10
9 -15 27 -1 21 16 -3 7 3 18 12 23 11 7 12 10 4 11 -23 0 45 50 68 50 12 0 35
15 53 35 17 19 38 35 47 35 9 0 30 7 46 15 16 8 44 12 62 10 17 -2 32 0 32 6
0 6 5 7 10 4 6 -3 10 -2 10 3 0 9 65 28 83 24 4 -1 22 5 40 15 18 9 57 17 87
19 75 3 173 13 178 19 3 2 16 2 31 0 14 -3 44 -8 66 -11z m-1250 -355 c-4 -5
3 -9 14 -9 24 0 28 -15 6 -24 -8 -3 -15 -18 -15 -33 0 -20 -3 -24 -9 -14 -5 8
-17 11 -28 7 -17 -5 -19 -2 -15 25 2 17 11 33 18 36 8 3 14 12 14 20 0 8 5 11
10 8 6 -4 8 -11 5 -16z m-348 -591 c-3 -8 -6 -5 -6 6 -1 11 2 17 5 13 3 -3 4
-12 1 -19z m2939 -1348 c15 13 31 0 108 -88 36 -42 46 -60 44 -85 -2 -36 -42
-87 -70 -87 -10 0 -18 -4 -18 -10 0 -5 -6 -10 -13 -10 -8 0 -22 -9 -32 -20
-10 -11 -20 -18 -23 -16 -2 3 -22 -2 -44 -10 -22 -7 -45 -11 -51 -7 -6 3 -7 1
-3 -6 5 -7 -4 -13 -24 -17 -17 -4 -37 -16 -45 -28 -13 -17 -15 -18 -15 -3 0 9
-2 17 -4 17 -2 0 -13 3 -23 7 -10 3 -15 3 -11 -2 11 -12 -11 -35 -33 -35 -11
0 -19 -6 -19 -14 0 -13 -4 -13 -27 -1 -17 9 -29 11 -31 5 -2 -6 -11 -10 -20
-10 -24 0 -152 -50 -152 -60 0 -5 -18 -11 -40 -15 -22 -4 -40 -11 -40 -17 0
-6 -7 -8 -15 -4 -9 3 -15 0 -15 -9 0 -9 -6 -12 -15 -8 -9 3 -21 -1 -28 -10
-15 -19 -77 -33 -77 -18 0 6 -4 11 -10 11 -5 0 -9 -3 -9 -7 5 -32 -34 -53 -98
-53 -19 0 -32 -4 -29 -9 6 -9 -36 -31 -60 -31 -9 0 -12 5 -8 13 7 11 -23 -9
-36 -24 -3 -3 -14 -10 -24 -16 -18 -10 -17 -12 15 -28 19 -10 37 -23 41 -29 4
-6 8 -8 8 -4 0 4 24 -5 53 -19 28 -15 58 -28 64 -29 16 -3 48 -34 48 -47 0 -6
6 -12 13 -15 7 -2 10 2 6 12 -8 20 -5 20 37 -1 19 -10 43 -19 54 -20 11 -2 22
-8 23 -13 2 -6 10 -10 18 -10 8 0 14 -6 14 -12 0 -9 4 -8 10 2 6 10 10 11 10
3 0 -8 13 -13 30 -13 18 0 33 -6 36 -15 4 -8 17 -15 29 -15 13 0 27 -5 30 -10
4 -6 10 -8 15 -5 5 3 27 -2 49 -12 31 -13 41 -23 41 -40 0 -13 5 -23 11 -23 6
0 9 9 6 20 -7 26 -3 25 24 -2 12 -13 19 -17 15 -10 -6 10 -1 11 21 6 15 -4 30
-11 31 -16 2 -4 8 -6 12 -3 15 9 60 -6 60 -21 0 -8 5 -14 11 -14 5 0 7 5 4 10
-10 16 12 8 83 -28 35 -18 60 -27 56 -20 -5 8 3 6 18 -4 15 -10 33 -15 41 -12
8 3 21 -2 30 -10 8 -8 18 -12 22 -8 5 4 5 -1 2 -10 -4 -12 -2 -15 8 -12 19 8
29 -35 21 -86 -9 -55 -44 -133 -56 -125 -6 4 -17 2 -25 -5 -15 -12 -45 -1 -74
27 -7 8 -28 14 -45 13 -48 -3 -58 -1 -51 10 6 10 -20 15 -69 11 -22 -2 -27 1
-23 12 7 18 -44 43 -68 33 -10 -3 -15 1 -15 13 0 27 -23 44 -39 28 -10 -9 -11
-8 -5 7 6 16 4 18 -9 13 -10 -4 -17 -1 -17 6 0 8 -3 7 -9 -2 -5 -8 -7 -20 -4
-28 7 -17 4 -17 -53 9 -27 12 -52 21 -57 20 -4 -1 -24 5 -43 13 -20 8 -44 15
-54 15 -20 0 -133 36 -177 57 -18 8 -30 19 -27 24 5 9 -15 13 -46 11 -32 -3
-80 20 -80 38 0 9 -8 24 -17 31 -11 10 -14 10 -9 2 9 -17 -16 -17 -32 -1 -9 9
-12 9 -12 0 0 -7 -9 -12 -19 -12 -14 0 -18 5 -14 20 3 11 0 20 -6 20 -6 0 -11
-7 -11 -15 0 -20 -16 -19 -24 1 -3 8 -10 13 -14 10 -16 -10 -96 16 -110 35
-10 15 -17 18 -25 10 -6 -6 -19 -11 -28 -11 -21 0 -38 22 -21 28 19 6 14 34
-5 30 -10 -2 -17 -11 -17 -21 2 -21 -9 -22 -26 -2 -7 8 -17 15 -23 15 -5 0
-16 8 -23 18 -9 11 -13 12 -14 4 0 -18 -40 4 -40 22 0 7 -17 18 -37 24 -41 12
-60 12 -55 -1 1 -4 -6 -10 -15 -14 -10 -4 -35 -17 -55 -29 -20 -13 -48 -25
-62 -28 -33 -6 -48 -15 -41 -26 3 -5 0 -12 -6 -16 -8 -4 -9 -3 -5 4 4 7 2 12
-3 12 -6 0 -11 -4 -11 -10 0 -5 -8 -10 -17 -10 -10 0 -38 -12 -62 -25 -24 -14
-49 -25 -55 -24 -6 1 -25 1 -43 0 -24 -1 -31 -5 -27 -16 6 -14 -11 -20 -38
-16 -5 0 -8 -3 -8 -8 0 -5 -9 -7 -19 -4 -13 3 -24 -2 -33 -16 -7 -12 -16 -21
-21 -21 -4 0 -5 5 -2 10 10 16 -21 11 -35 -5 -7 -9 -19 -14 -26 -11 -7 3 -16
1 -19 -4 -4 -6 -15 -10 -26 -10 -11 0 -18 -4 -15 -9 4 -5 -2 -7 -12 -4 -11 2
-26 -3 -35 -11 -8 -9 -23 -16 -32 -16 -8 0 -32 -7 -53 -16 -20 -9 -46 -18 -57
-20 -11 -1 -63 -19 -115 -39 -94 -35 -126 -49 -204 -86 -22 -11 -47 -19 -55
-19 -9 0 -25 -7 -35 -15 -11 -8 -28 -15 -38 -15 -10 0 -18 -4 -18 -9 0 -19
-75 -37 -138 -33 -20 2 -67 43 -67 60 0 4 -4 13 -9 21 -5 8 -10 31 -11 53 -3
48 35 91 116 131 59 29 169 69 169 62 0 -3 26 9 59 25 32 17 65 30 74 30 8 0
31 7 52 16 20 8 52 16 71 18 18 2 44 10 56 18 13 8 39 17 58 20 19 3 66 17
103 31 37 14 71 26 75 27 10 3 20 7 86 29 33 12 62 19 64 16 2 -2 14 6 26 19
26 28 106 69 106 55 0 -6 6 -4 14 4 8 8 25 12 38 10 13 -2 39 3 58 11 26 11
29 15 14 16 -11 0 -24 3 -27 7 -8 7 -91 37 -222 79 -44 14 -94 31 -110 38 -17
8 -46 17 -65 21 -19 4 -45 13 -57 21 -12 7 -36 16 -55 19 -18 3 -62 20 -98 38
-36 17 -69 32 -75 33 -5 0 -28 8 -50 18 -22 9 -66 26 -97 36 -53 17 -100 36
-157 63 -13 7 -31 12 -40 12 -9 0 -15 7 -15 17 1 11 -5 16 -20 15 -11 -1 -38
2 -59 6 -30 6 -37 12 -33 24 6 13 4 14 -9 3 -14 -11 -19 -10 -37 8 -18 17 -21
32 -20 83 2 51 7 67 32 99 28 35 74 57 85 40 2 -4 15 -5 28 -3 14 3 40 -3 58
-13 19 -10 38 -17 43 -16 4 2 14 -2 21 -8 8 -6 28 -13 45 -15 17 -2 56 -16 85
-30 30 -14 62 -25 72 -25 11 0 23 -4 29 -9 5 -5 27 -11 49 -13 27 -2 39 -7 37
-17 -2 -10 6 -12 28 -9 18 3 30 0 30 -7 0 -6 19 -16 43 -23 24 -7 87 -35 140
-62 54 -27 114 -52 134 -56 20 -4 46 -15 57 -26 11 -10 25 -17 31 -15 5 3 23
-2 38 -10 16 -8 35 -12 43 -9 7 3 16 1 19 -5 4 -5 10 -7 15 -4 5 3 11 1 15 -5
3 -5 15 -10 26 -10 10 0 19 -3 19 -7 0 -5 11 -9 24 -9 24 -2 38 -11 74 -46 11
-11 22 -14 31 -8 21 12 42 0 36 -20 -3 -10 -1 -21 5 -25 5 -3 10 -1 10 4 0 6
14 11 30 11 17 0 30 -5 30 -11 0 -5 4 -8 10 -4 5 3 21 3 35 -1 20 -5 25 -12
22 -25 -8 -30 14 -28 92 8 40 18 80 33 88 33 7 0 25 7 38 16 13 9 29 13 35 9
5 -3 10 -2 10 3 0 5 20 15 44 21 25 6 48 15 51 21 3 5 17 10 30 10 13 0 26 4
29 9 11 17 106 59 112 49 3 -5 12 -2 19 8 7 10 19 15 29 11 9 -4 16 -2 16 3 0
6 7 10 15 10 8 0 34 9 58 19 23 11 67 25 97 32 30 6 69 17 85 25 105 44 143
64 167 87 16 14 54 34 85 44 32 9 60 20 63 24 3 3 16 10 30 14 14 4 47 18 74
31 28 13 58 24 67 24 10 0 21 5 24 10 3 6 19 10 36 10 16 0 29 4 29 9 0 13 74
41 78 30 2 -6 10 -5 18 1z m-4536 -1600 c0 -5 -5 -10 -11 -10 -5 0 -7 5 -4 10
3 6 8 10 11 10 2 0 4 -4 4 -10z"/>
<path d="M4775 6073 c-11 -3 -32 -14 -47 -24 -14 -11 -33 -19 -41 -19 -9 0
-17 -3 -19 -8 -6 -14 -132 -105 -145 -105 -7 0 -13 -6 -13 -14 0 -7 -11 -13
-26 -13 -14 0 -23 -4 -20 -9 3 -5 -2 -12 -11 -16 -10 -3 -19 -1 -21 4 -6 17
-20 13 -18 -5 0 -9 -5 -19 -13 -22 -8 -2 -11 0 -8 5 4 6 -4 8 -19 5 -21 -4
-24 -9 -20 -28 6 -24 -9 -35 -16 -12 -6 16 -45 -28 -65 -72 -9 -19 -19 -39
-21 -44 -3 -5 1 -6 8 -1 8 5 11 3 8 -6 -3 -8 -11 -13 -17 -11 -6 1 -11 -8 -11
-21 0 -13 -4 -27 -8 -32 -5 -6 -17 -36 -27 -68 -18 -61 -15 -144 8 -197 4 -8
20 -53 36 -100 72 -210 120 -317 148 -334 9 -4 23 -16 33 -26 10 -10 29 -21
42 -25 12 -4 36 -19 52 -32 16 -13 41 -27 57 -30 36 -7 65 -38 52 -55 -16 -20
-22 -57 -12 -64 6 -3 6 -11 -1 -19 -7 -8 -9 -19 -5 -25 3 -5 2 -10 -3 -10 -12
0 -22 -31 -28 -85 -2 -21 -9 -44 -14 -49 -22 -22 -11 -38 21 -34 18 3 45 -2
61 -9 22 -11 32 -12 43 -3 9 7 20 8 32 2 10 -5 27 -8 38 -6 48 10 182 27 205
27 14 -1 53 -3 87 -6 45 -4 71 -2 93 9 18 9 70 18 128 21 53 2 108 6 122 8 14
1 32 3 41 4 16 1 34 40 21 42 -4 1 -17 3 -30 4 -45 5 -81 72 -82 152 0 30 65
75 97 67 13 -4 23 -2 23 2 0 20 91 118 119 130 17 7 31 19 31 27 0 8 16 31 35
51 19 21 35 41 35 45 0 4 13 20 29 35 62 59 94 171 79 276 -4 26 -2 37 11 42
15 6 15 7 0 7 -20 1 -28 30 -25 89 1 23 -2 42 -7 42 -4 0 -5 5 -1 11 3 6 2 14
-4 18 -6 3 -14 28 -17 55 -6 39 -4 47 7 41 7 -5 1 3 -14 18 -16 14 -28 30 -28
34 0 5 -10 13 -22 18 -12 6 -32 28 -44 50 -15 28 -36 46 -68 61 -25 12 -55 33
-67 48 -11 14 -27 26 -35 26 -8 0 -17 7 -20 15 -3 8 -21 17 -40 21 -19 3 -34
10 -34 15 0 5 -7 9 -15 9 -8 0 -15 4 -15 9 0 16 -74 45 -123 48 -26 1 -56 7
-66 12 -25 14 -182 22 -196 11 -7 -6 -39 -13 -73 -16 -60 -7 -61 -6 -68 20 -6
26 -17 29 -59 19z m-395 -243 c0 -5 -2 -10 -4 -10 -3 0 -8 5 -11 10 -3 6 -1
10 4 10 6 0 11 -4 11 -10z m-69 -93 c-16 -16 -26 0 -10 19 9 11 15 12 17 4 2
-6 -1 -17 -7 -23z m470 -247 c72 -20 131 -104 125 -176 -2 -21 -4 -46 -5 -55
-1 -16 -61 -89 -61 -74 0 5 -6 1 -12 -8 -13 -16 -79 -30 -142 -29 -15 1 -37
10 -48 21 -10 12 -23 21 -28 21 -19 0 -69 66 -79 105 -8 33 -7 53 9 105 26 83
27 84 80 98 48 11 103 9 161 -8z m601 -24 c33 -16 48 -33 70 -76 17 -34 23
-56 17 -59 -7 -2 -6 -7 2 -12 10 -6 11 -9 2 -9 -7 0 -13 -5 -13 -11 0 -5 4 -7
10 -4 6 4 7 -1 3 -12 -4 -10 -12 -22 -20 -26 -7 -4 -13 -12 -13 -17 0 -19 -35
-50 -56 -50 -12 0 -24 -5 -26 -12 -3 -7 -24 -11 -59 -10 -88 2 -114 13 -124
50 -4 15 -10 21 -12 15 -3 -7 -9 -13 -15 -13 -6 0 -8 7 -4 15 3 8 1 15 -5 15
-6 0 -9 6 -6 14 3 8 -2 16 -14 19 -20 5 -28 47 -9 47 6 0 6 7 -1 18 -21 33 8
100 45 106 9 1 21 7 24 13 20 30 143 30 204 -1z"/>
<path d="M5165 5390 c3 -5 8 -10 11 -10 2 0 4 5 4 10 0 6 -5 10 -11 10 -5 0
-7 -4 -4 -10z"/>
<path d="M5122 5371 c-11 -7 -11 -9 2 -14 10 -4 16 -1 16 8 0 17 -1 17 -18 6z"/>
<path d="M5115 5300 c3 -5 11 -10 16 -10 6 0 7 5 4 10 -3 6 -11 10 -16 10 -6
0 -7 -4 -4 -10z"/>
<path d="M5154 5285 c-7 -17 4 -38 15 -30 5 2 11 14 14 25 6 23 -20 29 -29 5z"/>
<path d="M4122 5716 c-16 -36 -15 -41 4 -22 8 9 14 24 12 33 -2 13 -6 10 -16
-11z"/>
<path d="M4085 5641 c-3 -5 -2 -12 3 -15 5 -3 9 1 9 9 0 17 -3 19 -12 6z"/>
<path d="M5793 5465 c0 -8 4 -15 9 -15 4 0 8 4 8 9 0 6 -4 12 -8 15 -5 3 -9
-1 -9 -9z"/>
<path d="M6166 3701 c-4 -5 3 -7 14 -4 23 6 26 13 6 13 -8 0 -17 -4 -20 -9z"/>
<path d="M6130 3661 c0 -5 7 -11 15 -15 8 -3 15 -1 15 3 0 5 -7 11 -15 15 -8
3 -15 1 -15 -3z"/>
<path d="M5810 3126 c0 -2 8 -10 18 -17 15 -13 16 -12 3 4 -13 16 -21 21 -21
13z"/>
<path d="M5867 3099 c7 -7 15 -10 18 -7 3 3 -2 9 -12 12 -14 6 -15 5 -6 -5z"/>
<path d="M5055 7730 c3 -5 11 -10 16 -10 6 0 7 5 4 10 -3 6 -11 10 -16 10 -6
0 -7 -4 -4 -10z"/>
<path d="M3789 5893 c-13 -16 -12 -17 4 -4 9 7 17 15 17 17 0 8 -8 3 -21 -13z"/>
<path d="M3755 5840 c-3 -5 -1 -10 4 -10 6 0 11 5 11 10 0 6 -2 10 -4 10 -3 0
-8 -4 -11 -10z"/>
<path d="M3773 5798 c-23 -30 -24 -41 -2 -21 12 12 20 25 17 28 -3 3 -10 0
-15 -7z"/>
<path d="M3688 5713 c7 -3 16 -2 19 1 4 3 -2 6 -13 5 -11 0 -14 -3 -6 -6z"/>
<path d="M7356 4055 c4 -16 13 -36 21 -43 7 -8 20 -27 29 -44 8 -16 18 -28 21
-25 5 6 -16 47 -55 107 l-24 35 8 -30z"/>
<path d="M7950 3349 c0 -5 5 -7 10 -4 6 3 10 8 10 11 0 2 -4 4 -10 4 -5 0 -10
-5 -10 -11z"/>
<path d="M8225 2700 c-3 -5 -1 -10 4 -10 6 0 11 5 11 10 0 6 -2 10 -4 10 -3 0
-8 -4 -11 -10z"/>
<path d="M8114 2275 c-10 -26 1 -35 13 -10 6 14 7 25 2 25 -5 0 -12 -7 -15
-15z"/>
<path d="M7355 2010 c3 -5 8 -10 11 -10 2 0 4 5 4 10 0 6 -5 10 -11 10 -5 0
-7 -4 -4 -10z"/>
<path d="M2390 1984 c0 -8 5 -12 10 -9 6 3 10 10 10 16 0 5 -4 9 -10 9 -5 0
-10 -7 -10 -16z"/>
</g>
</svg>
